<?xml version="1.0" standalone="no"?>
<!DOCTYPE svg PUBLIC "-//W3C//DTD SVG 20010904//EN"
 "http://www.w3.org/TR/2001/REC-SVG-20010904/DTD/svg10.dtd">
<svg version="1.0" xmlns="http://www.w3.org/2000/svg"
 width="1024.000000pt" height="1024.000000pt" viewBox="0 0 1024.000000 1024.000000"
 preserveAspectRatio="xMidYMid meet">

<g transform="translate(0.000000,1024.000000) scale(0.100000,-0.100000)"
fill="#000000" stroke="none">
<path d="M4865 9503 c-361 -25 -754 -136 -1072 -303 -190 -100 -382 -233 -447
-311 -16 -18 -38 -34 -50 -36 -33 -5 -96 -35 -96 -46 0 -6 -3 -7 -7 -4 -10 10
-199 -93 -342 -187 -150 -98 -282 -198 -406 -310 -145 -130 -171 -156 -265
-261 -322 -363 -559 -746 -710 -1150 -324 -866 -326 -1839 -3 -2690 50 -133
160 -371 168 -363 3 2 18 49 34 104 41 136 81 231 134 312 l44 69 2 124 c4
353 75 551 257 718 108 99 243 155 404 168 l75 6 73 159 c39 88 72 166 72 172
0 7 -12 24 -27 38 -23 21 -44 29 -112 38 -360 49 -511 321 -514 925 -1 269 24
452 87 619 72 190 221 316 419 353 45 9 87 17 93 19 6 1 26 47 45 101 42 125
166 370 248 493 67 102 107 152 211 269 64 73 65 74 66 135 1 64 17 125 42
164 24 36 24 19 0 -29 -16 -32 -23 -66 -24 -122 l-3 -78 -60 -64 c-147 -158
-260 -323 -366 -536 -39 -81 -87 -192 -105 -248 -29 -92 -34 -101 -57 -101
-47 0 -169 -32 -230 -62 -73 -34 -168 -118 -212 -186 -100 -157 -148 -428
-138 -791 6 -229 22 -346 66 -475 37 -107 70 -166 134 -234 82 -86 162 -119
364 -148 31 -4 98 -66 91 -84 -2 -4 -37 -82 -78 -173 l-74 -164 -76 -7 c-97
-8 -209 -39 -282 -78 -162 -86 -294 -264 -342 -461 -19 -77 -36 -250 -36 -378
0 -83 -2 -89 -36 -140 -67 -100 -114 -212 -155 -372 -78 -308 -73 -580 16
-801 l24 -59 -38 -46 c-129 -155 -177 -315 -175 -591 1 -140 5 -184 28 -288
72 -329 219 -607 436 -822 341 -340 781 -502 1666 -614 240 -31 606 -61 924
-77 266 -13 1144 -6 1380 11 784 56 1293 157 1621 319 435 216 706 565 821
1061 19 82 22 125 23 305 0 237 -11 296 -83 444 -48 100 -158 213 -254 260
-38 19 -68 36 -68 38 0 2 25 33 55 69 197 231 440 624 560 904 147 342 233
655 286 1050 30 220 33 713 6 910 -57 413 -160 758 -326 1102 -286 590 -750
1126 -1329 1531 -119 83 -290 183 -307 180 -6 -2 -19 12 -30 30 -95 161 -430
379 -800 520 -353 134 -824 198 -1240 170z m233 -150 c-10 -2 -28 -2 -40 0
-13 2 -5 4 17 4 22 1 32 -1 23 -4z m100 0 c-16 -2 -40 -2 -55 0 -16 2 -3 4 27
4 30 0 43 -2 28 -4z m-280 -10 c-10 -2 -26 -2 -35 0 -10 3 -2 5 17 5 19 0 27
-2 18 -5z m419 1 c-3 -3 -12 -4 -19 -1 -8 3 -5 6 6 6 11 1 17 -2 13 -5z m96
-11 c-7 -2 -19 -2 -25 0 -7 3 -2 5 12 5 14 0 19 -2 13 -5z m70 -10 c-7 -2 -19
-2 -25 0 -7 3 -2 5 12 5 14 0 19 -2 13 -5z m-856 -9 c-3 -3 -12 -4 -19 -1 -8
3 -5 6 6 6 11 1 17 -2 13 -5z m970 -10 c-3 -3 -12 -4 -19 -1 -8 3 -5 6 6 6 11
1 17 -2 13 -5z m-1867 -309 c0 -2 -10 -9 -22 -15 -22 -11 -22 -10 -4 4 21 17
26 19 26 11z m1693 -109 c383 -62 746 -212 1017 -421 137 -106 292 -270 391
-417 137 -202 255 -486 293 -710 l7 -36 -58 14 c-32 9 -112 30 -178 49 -291
82 -486 108 -805 107 -331 0 -506 -26 -655 -97 -81 -39 -162 -106 -171 -141
-6 -23 -9 -24 -58 -17 -67 10 -276 10 -348 0 l-56 -8 -11 34 c-19 57 -125 209
-207 296 -315 335 -800 483 -1263 386 -36 -7 -68 -12 -70 -10 -8 9 152 236
229 322 232 263 588 481 960 587 106 30 271 64 370 76 112 13 497 4 613 -14z
m1178 7 c13 -16 12 -17 -3 -4 -10 7 -18 15 -18 17 0 8 8 3 21 -13z m44 -33
c10 -11 16 -20 13 -20 -3 0 -13 9 -23 20 -10 11 -16 20 -13 20 3 0 13 -9 23
-20z m-3115 6 c0 -2 -8 -10 -17 -17 -16 -13 -17 -12 -4 4 13 16 21 21 21 13z
m-40 -30 c0 -2 -8 -10 -17 -17 -16 -13 -17 -12 -4 4 13 16 21 21 21 13z m3439
-130 c1 -42 -5 -29 -12 24 -4 30 -3 38 3 25 5 -11 9 -33 9 -49z m-3969 -31 c0
-2 -10 -9 -22 -15 -22 -11 -22 -10 -4 4 21 17 26 19 26 11z m4042 -153 c90
-92 207 -245 274 -358 60 -102 158 -304 168 -344 l6 -25 -11 25 c-156 338
-262 505 -443 697 -65 69 -76 86 -75 114 l1 34 8 -38 c5 -29 24 -56 72 -105z
m-4185 55 c0 -7 -9 -13 -19 -13 -18 0 -18 1 -2 13 10 7 18 13 19 13 1 0 2 -6
2 -13z m-97 -62 c0 -2 -10 -9 -22 -15 -22 -11 -22 -10 -4 4 21 17 26 19 26 11z
m-210 -158 c0 -2 -10 -12 -22 -23 l-23 -19 19 23 c18 21 26 27 26 19z m-100
-91 c0 -2 -8 -10 -17 -17 -16 -13 -17 -12 -4 4 13 16 21 21 21 13z m-190 -189
c0 -2 -17 -19 -37 -38 l-38 -34 34 38 c33 34 41 42 41 34z m-150 -171 c0 -2
-8 -10 -17 -17 -16 -13 -17 -12 -4 4 13 16 21 21 21 13z m5408 -173 c11 -32
23 -67 27 -78 6 -14 5 -17 -2 -10 -6 6 -19 35 -28 65 -10 30 -20 61 -23 68 -2
6 -2 12 1 12 3 0 14 -26 25 -57z m-5604 -88 c-9 -14 -18 -25 -21 -25 -5 0 5
18 20 38 17 22 18 13 1 -13z m5764 -10 c197 -47 336 -195 412 -440 11 -33 22
-80 25 -105 3 -27 -4 -8 -19 45 -47 177 -102 279 -195 368 -73 70 -157 111
-266 131 -44 8 -66 15 -50 15 17 0 58 -6 93 -14z m-5837 -98 c-10 -9 -11 -8
-5 6 3 10 9 15 12 12 3 -3 0 -11 -7 -18z m2024 -62 c319 -86 556 -329 619
-638 20 -95 21 -264 1 -355 -55 -266 -211 -462 -460 -582 -119 -57 -198 -79
-321 -87 -437 -28 -825 280 -894 710 -16 95 -8 278 15 362 40 145 152 329 248
408 117 96 264 166 402 193 90 17 308 11 390 -11z m-2094 -48 c-10 -9 -11 -8
-5 6 3 10 9 15 12 12 3 -3 0 -11 -7 -18z m4759 -175 c177 -32 245 -73 272
-165 17 -56 16 -330 -1 -427 -45 -255 -138 -406 -298 -482 -108 -51 -233 -71
-418 -65 -174 6 -237 18 -345 69 -129 61 -233 201 -281 378 -26 94 -38 393
-20 482 28 134 120 192 353 223 151 21 596 13 738 -13z m-4903 -104 c-3 -8 -6
-5 -6 6 -1 11 2 17 5 13 3 -3 4 -12 1 -19z m5599 -135 c10 -71 -3 -431 -21
-566 -31 -234 -120 -528 -220 -727 -194 -387 -565 -709 -1009 -874 -587 -220
-1399 -184 -1937 85 -133 66 -308 191 -426 304 -62 59 -113 110 -113 113 0 4
52 6 116 4 453 -12 873 203 1120 573 83 125 119 199 162 335 69 217 82 470 37
687 -10 46 17 57 135 58 139 0 146 -6 155 -132 32 -462 163 -719 431 -845 126
-59 222 -79 417 -85 253 -9 400 17 552 95 218 113 343 372 377 780 18 225 28
242 150 242 l67 0 7 -47z m-5662 5 c-14 -47 -25 -71 -29 -66 -3 2 3 23 12 46
17 44 29 58 17 20z m6563 -30 c-2 -13 -4 -5 -4 17 -1 22 1 32 4 23 2 -10 2
-28 0 -40z m10 -120 c-2 -18 -4 -4 -4 32 0 36 2 50 4 33 2 -18 2 -48 0 -65z
m-6637 -15 c-11 -17 -11 -17 -6 0 3 10 6 24 7 30 0 9 2 9 5 0 3 -7 0 -20 -6
-30z m0 -27 c0 -3 -4 -8 -10 -11 -5 -3 -10 -1 -10 4 0 6 5 11 10 11 6 0 10 -2
10 -4z m6647 -178 c-2 -35 -3 -7 -3 62 0 69 1 97 3 63 2 -35 2 -91 0 -125z
m-6729 -56 c-6 -24 -13 -41 -15 -38 -2 2 1 23 7 46 6 23 13 40 15 38 2 -2 -1
-23 -7 -46z m6719 -109 c-2 -21 -4 -6 -4 32 0 39 2 55 4 38 2 -18 2 -50 0 -70z
m-6747 20 c-11 -17 -11 -17 -6 0 3 10 6 24 7 30 0 9 2 9 5 0 3 -7 0 -20 -6
-30z m6737 -115 c-2 -13 -4 -5 -4 17 -1 22 1 32 4 23 2 -10 2 -28 0 -40z m-10
-65 c-3 -10 -5 -4 -5 12 0 17 2 24 5 18 2 -7 2 -21 0 -30z m-6780 -55 c-3 -8
-6 -5 -6 6 -1 11 2 17 5 13 3 -3 4 -12 1 -19z m6758 -65 c-23 -86 -29 -75 -8
16 10 40 19 67 21 61 3 -7 -3 -41 -13 -77z m-6768 -5 c-3 -7 -5 -2 -5 12 0 14
2 19 5 13 2 -7 2 -19 0 -25z m-17 -98 l-11 -25 6 25 c2 14 6 39 6 55 l2 30 4
-30 c2 -17 -1 -42 -7 -55z m6730 -49 c-41 -83 -46 -77 -7 9 18 38 33 66 35 61
2 -5 -11 -37 -28 -70z m-6743 -73 c-3 -7 -5 -2 -5 12 0 14 2 19 5 13 2 -7 2
-19 0 -25z m6685 -26 c-61 -85 -210 -183 -302 -197 -24 -4 -18 0 20 13 101 34
179 82 238 149 62 68 74 78 44 35z m-6695 -24 c-3 -8 -6 -5 -6 6 -1 11 2 17 5
13 3 -3 4 -12 1 -19z m-10 -155 c-2 -21 -4 -6 -4 32 0 39 2 55 4 38 2 -18 2
-50 0 -70z m6338 -34 c-16 -5 -100 -12 -185 -14 l-155 -4 159 9 c87 5 161 11
164 14 3 3 15 6 26 5 16 -1 14 -3 -9 -10z m-371 -6 c-25 -3 -35 -12 -52 -48
-60 -124 -218 -349 -331 -471 -115 -125 -302 -275 -448 -359 -46 -26 -81 -51
-78 -55 2 -4 25 -15 50 -25 26 -9 44 -19 42 -21 -2 -2 -21 3 -43 12 -21 9 -50
21 -63 26 -23 8 -22 10 25 35 81 42 214 131 305 204 194 155 418 431 533 657
24 47 29 52 59 50 l32 -1 -31 -4z m-5974 -68 c-7 -59 -7 -59 -9 -13 -1 40 7
85 14 76 1 -2 -2 -30 -5 -63z m2164 -501 c127 -127 255 -229 384 -309 l64 -39
-34 -12 c-19 -6 -103 -46 -188 -89 -262 -131 -430 -251 -593 -427 -52 -56 -96
-97 -100 -92 -3 5 10 40 28 77 28 60 39 73 86 99 180 103 248 195 249 334 0
127 -41 198 -154 269 -61 38 -77 54 -91 87 l-16 42 73 149 73 149 44 -53 c25
-30 103 -113 175 -185z m-2157 79 c-2 -16 -4 -5 -4 22 0 28 2 40 4 28 2 -13 2
-35 0 -50z m1441 -78 c85 -20 137 -48 192 -105 78 -81 100 -195 59 -306 -20
-53 -23 -56 -35 -38 -71 103 -115 138 -221 173 -124 42 -263 19 -263 -43 0
-33 16 -42 86 -49 74 -8 164 -39 221 -79 75 -51 143 -177 143 -266 0 -44 -23
-129 -43 -155 -12 -17 -17 -13 -60 43 -82 105 -234 181 -366 184 -66 1 -101
-20 -101 -59 0 -25 24 -38 102 -55 128 -27 228 -87 273 -164 29 -50 31 -75 9
-122 -24 -51 -90 -86 -173 -92 -95 -6 -165 16 -242 78 -34 28 -67 50 -72 50
-18 0 -47 -32 -47 -52 0 -48 63 -118 140 -158 46 -23 150 -50 199 -50 32 0 33
-1 19 -22 -23 -35 -82 -51 -164 -45 -116 8 -199 57 -261 155 -60 93 -84 192
-90 367 -10 315 68 557 224 695 121 106 311 153 471 115z m-1421 -107 c-3 -8
-6 -5 -6 6 -1 11 2 17 5 13 3 -3 4 -12 1 -19z m20 -130 c-3 -7 -5 -2 -5 12 0
14 2 19 5 13 2 -7 2 -19 0 -25z m10 -65 c-3 -10 -5 -4 -5 12 0 17 2 24 5 18 2
-7 2 -21 0 -30z m1854 -111 c25 -75 -13 -164 -93 -222 -22 -17 -44 -30 -49
-30 -4 0 -12 21 -17 47 -10 44 -9 49 15 72 35 35 59 86 73 154 l12 59 24 -23
c13 -12 29 -38 35 -57z m-1834 6 c-3 -7 -5 -2 -5 12 0 14 2 19 5 13 2 -7 2
-19 0 -25z m5237 -72 c349 -171 591 -394 768 -708 27 -49 48 -91 46 -93 -2 -3
-21 28 -43 68 -172 322 -442 569 -820 748 -55 26 -96 48 -91 48 5 1 68 -28
140 -63z m-5227 32 c-3 -8 -6 -5 -6 6 -1 11 2 17 5 13 3 -3 4 -12 1 -19z m20
-80 c-3 -8 -6 -5 -6 6 -1 11 2 17 5 13 3 -3 4 -12 1 -19z m3013 -18 c117 -29
297 -63 403 -76 l58 -6 -208 -212 c-114 -116 -211 -212 -215 -214 -12 -6 -134
323 -178 482 l-19 68 22 -6 c12 -3 74 -19 137 -36z m1560 25 c0 -28 -119 -355
-174 -479 l-26 -59 -87 94 c-47 52 -142 149 -210 217 -68 67 -117 122 -108
122 92 0 458 64 541 94 41 15 64 19 64 11z m-4563 -47 c-3 -8 -6 -5 -6 6 -1
11 2 17 5 13 3 -3 4 -12 1 -19z m10 -50 c-3 -7 -5 -2 -5 12 0 14 2 19 5 13 2
-7 2 -19 0 -25z m2353 24 c0 -5 -33 -26 -72 -47 -208 -108 -435 -285 -569
-444 -54 -64 -69 -89 -65 -105 4 -12 8 -41 11 -66 4 -32 1 -26 -10 23 l-16 68
77 90 c125 147 307 294 516 416 140 82 128 75 128 65z m-44 -89 c-14 -26 -25
-45 -26 -41 0 12 43 98 48 94 2 -2 -8 -26 -22 -53z m-2299 25 c-3 -8 -6 -5 -6
6 -1 11 2 17 5 13 3 -3 4 -12 1 -19z m3690 15 c-34 -4 -54 -20 -163 -126 -68
-67 -124 -120 -124 -116 0 3 56 60 123 127 118 116 126 122 163 120 l39 -1
-38 -4z m134 -80 c13 -16 12 -17 -3 -4 -10 7 -18 15 -18 17 0 8 8 3 21 -13z
m-3794 -35 c-3 -8 -6 -5 -6 6 -1 11 2 17 5 13 3 -3 4 -12 1 -19z m2224 -25
c-12 -20 -14 -14 -5 12 4 9 9 14 11 11 3 -2 0 -13 -6 -23z m1654 -23 c10 -11
16 -20 13 -20 -3 0 -13 9 -23 20 -10 11 -16 20 -13 20 3 0 13 -9 23 -20z
m-1684 -47 c-12 -20 -14 -14 -5 12 4 9 9 14 11 11 3 -2 0 -13 -6 -23z m1748
-27 c-3 -3 -11 5 -18 17 -13 21 -12 21 5 5 10 -10 16 -20 13 -22z m-1772 -58
c-3 -8 -6 -5 -6 6 -1 11 2 17 5 13 3 -3 4 -12 1 -19z m1444 -197 c64 -1 130
-4 147 -7 30 -6 32 -4 66 65 20 39 38 71 41 71 3 0 -12 -34 -33 -76 l-37 -76
-35 6 c-19 3 -87 6 -151 6 l-116 0 -52 106 c-28 58 -51 109 -50 112 0 4 24
-41 52 -100 l52 -107 116 0z m299 201 c0 -5 -7 -17 -15 -28 -14 -18 -14 -17
-4 9 12 27 19 34 19 19z m-1736 -48 c3 -8 2 -12 -4 -9 -6 3 -10 10 -10 16 0
14 7 11 14 -7z m1997 -130 c43 -51 79 -97 79 -104 0 -29 -206 -480 -220 -480
-8 0 -111 426 -110 457 0 13 27 73 60 135 33 61 60 116 60 121 0 15 42 -27
131 -129z m-847 -13 l64 -127 -57 -222 c-31 -122 -59 -222 -63 -222 -13 0
-171 329 -202 418 l-29 84 103 103 c57 57 107 102 112 99 5 -3 37 -63 72 -133z
m-2811 -23 c46 -97 85 -148 154 -203 100 -78 240 -115 356 -95 141 26 286 128
338 239 13 27 28 50 33 51 17 0 -5 -126 -33 -185 -139 -296 -556 -354 -782
-107 -65 71 -112 168 -117 243 -4 52 3 129 12 129 2 0 19 -33 39 -72z m1917
19 c0 -2 -19 -21 -42 -42 -40 -37 -41 -37 -10 -4 18 19 29 38 26 42 -4 4 0 7
9 7 10 0 17 -1 17 -3z m200 0 c0 -2 -19 -21 -42 -42 l-43 -40 40 43 c36 39 45
47 45 39z m1821 -54 c-12 -20 -14 -14 -5 12 4 9 9 14 11 11 3 -2 0 -13 -6 -23z
m-4278 -13 c3 -11 2 -18 -3 -15 -4 3 -10 14 -13 25 -3 11 -2 18 3 15 4 -3 10
-14 13 -25z m4778 -17 c13 -16 12 -17 -3 -4 -10 7 -18 15 -18 17 0 8 8 3 21
-13z m-2631 -37 c0 -2 -8 -10 -17 -17 -16 -13 -17 -12 -4 4 13 16 21 21 21 13z
m160 -19 c0 -2 -10 -12 -22 -23 l-23 -19 19 23 c18 21 26 27 26 19z m1133 -24
c-76 -3 -92 -7 -96 -21 -3 -12 -5 -11 -6 6 -1 22 1 22 97 20 l97 -2 -92 -3z
m150 -10 c-7 -2 -21 -2 -30 0 -10 3 -4 5 12 5 17 0 24 -2 18 -5z m2306 -247
c23 -65 41 -123 40 -130 0 -6 -21 50 -48 124 -26 74 -59 161 -74 194 -15 32
-27 61 -26 65 2 16 71 -146 108 -253z m-4442 62 c-2 -35 -3 -7 -3 62 0 69 1
97 3 63 2 -35 2 -91 0 -125z m1852 -12 c-18 -86 -34 -154 -37 -152 -2 3 11 75
29 160 18 86 34 154 37 152 2 -3 -11 -75 -29 -160z m-3086 7 c-8 -27 -18 -113
-23 -193 l-8 -145 3 140 c3 136 18 245 35 245 4 0 1 -21 -7 -47z m67 -49 c0
-5 -11 7 -25 26 -14 19 -25 39 -25 44 0 6 11 -6 25 -26 14 -20 25 -40 25 -44z
m1157 -86 c-2 -13 -4 -5 -4 17 -1 22 1 32 4 23 2 -10 2 -28 0 -40z m-1086 25
c13 -16 12 -17 -3 -4 -10 7 -18 15 -18 17 0 8 8 3 21 -13z m4199 13 c0 -2 -8
-10 -17 -17 -16 -13 -17 -12 -4 4 13 16 21 21 21 13z m-2109 -33 c13 -16 12
-17 -3 -4 -17 13 -22 21 -14 21 2 0 10 -8 17 -17z m-2040 -20 c13 -16 12 -17
-3 -4 -10 7 -18 15 -18 17 0 8 8 3 21 -13z m4876 -15 c-3 -7 -5 -2 -5 12 0 14
2 19 5 13 2 -7 2 -19 0 -25z m-777 9 c0 -2 -10 -12 -22 -23 l-23 -19 19 23
c18 21 26 27 26 19z m-3073 -54 c-3 -10 -5 -4 -5 12 0 17 2 24 5 18 2 -7 2
-21 0 -30z m1814 -78 c-10 -55 -19 -92 -20 -81 -1 26 32 203 36 191 1 -6 -6
-55 -16 -110z m2727 -40 c17 -66 33 -140 36 -165 l5 -45 -10 40 c-16 62 -69
286 -69 292 0 22 12 -18 38 -122z m-3617 88 c13 -16 12 -17 -3 -4 -17 13 -22
21 -14 21 2 0 10 -8 17 -17z m2079 4 c0 -2 -12 -14 -27 -28 l-28 -24 24 28
c23 25 31 32 31 24z m180 -1 c0 -2 -8 -10 -17 -17 -16 -13 -17 -12 -4 4 13 16
21 21 21 13z m-3193 -28 c-3 -8 -6 -5 -6 6 -1 11 2 17 5 13 3 -3 4 -12 1 -19z
m-734 5 c-7 -2 -19 -2 -25 0 -7 3 -2 5 12 5 14 0 19 -2 13 -5z m1722 -43 c10
-11 16 -20 13 -20 -3 0 -13 9 -23 20 -10 11 -16 20 -13 20 3 0 13 -9 23 -20z
m-998 -12 c-3 -8 -6 -5 -6 6 -1 11 2 17 5 13 3 -3 4 -12 1 -19z m2943 -11 c0
-2 -15 -16 -32 -33 l-33 -29 29 33 c28 30 36 37 36 29z m-4153 -49 c-3 -7 -5
-2 -5 12 0 14 2 19 5 13 2 -7 2 -19 0 -25z m4303 8 c0 -2 -8 -10 -17 -17 -16
-13 -17 -12 -4 4 13 16 21 21 21 13z m-4293 -48 c-3 -8 -6 -5 -6 6 -1 11 2 17
5 13 3 -3 4 -12 1 -19z m2489 -10 l29 -33 -32 29 c-31 28 -38 36 -30 36 2 0
16 -15 33 -32z m551 -63 c36 -65 197 -298 209 -302 6 -2 41 39 78 92 36 52 69
95 72 95 5 0 -85 -133 -126 -187 l-17 -22 -25 27 c-75 80 -229 331 -227 369
l2 28 6 -30 c3 -16 16 -48 28 -70z m-711 33 l29 -33 -32 29 c-31 28 -38 36
-30 36 2 0 16 -15 33 -32z m-2297 -53 c0 -5 -4 -3 -9 5 -5 8 -9 22 -9 30 0 16
17 -16 18 -35z m4151 22 c0 -2 -15 -16 -32 -33 l-33 -29 29 33 c28 30 36 37
36 29z m-1574 -59 l29 -33 -32 29 c-31 28 -38 36 -30 36 2 0 16 -15 33 -32z
m835 5 c-5 -10 -17 -27 -26 -38 -16 -19 -17 -19 -3 5 26 46 29 50 34 50 3 0 0
-8 -5 -17z m-926 -113 c66 -66 117 -120 115 -120 -3 0 -59 54 -125 120 -66 66
-117 120 -115 120 3 0 59 -54 125 -120z m3318 77 c18 -4 17 -5 -5 -6 -23 -1
-28 3 -27 22 1 15 3 17 6 5 2 -9 14 -19 26 -21z m-1733 9 c0 -2 -8 -10 -17
-17 -16 -13 -17 -12 -4 4 13 16 21 21 21 13z m1853 -23 c-18 -2 -48 -2 -65 0
-18 2 -4 4 32 4 36 0 50 -2 33 -4z m-2083 -6 c0 -1 -24 -25 -52 -52 l-53 -50
50 53 c46 48 55 57 55 49z m2163 -4 c-7 -2 -21 -2 -30 0 -10 3 -4 5 12 5 17 0
24 -2 18 -5z m50 -10 c-7 -2 -19 -2 -25 0 -7 3 -2 5 12 5 14 0 19 -2 13 -5z
m67 -13 c11 -8 7 -9 -15 -4 -37 8 -45 14 -19 14 10 0 26 -5 34 -10z m-4499
-58 c-7 -2 -18 1 -23 6 -8 8 -4 9 13 5 13 -4 18 -8 10 -11z m56 -8 c-3 -3 -12
-4 -19 -1 -8 3 -5 6 6 6 11 1 17 -2 13 -5z m1074 -21 c13 -16 12 -17 -3 -4
-17 13 -22 21 -14 21 2 0 10 -8 17 -17z m-718 -30 c-7 -2 -19 -2 -25 0 -7 3
-2 5 12 5 14 0 19 -2 13 -5z m80 -10 c-7 -2 -19 -2 -25 0 -7 3 -2 5 12 5 14 0
19 -2 13 -5z m722 -33 c10 -11 16 -20 13 -20 -3 0 -13 9 -23 20 -10 11 -16 20
-13 20 3 0 13 -9 23 -20z m1468 3 c-7 -2 -21 -2 -30 0 -10 3 -4 5 12 5 17 0
24 -2 18 -5z m-170 -10 c-7 -2 -19 -2 -25 0 -7 3 -2 5 12 5 14 0 19 -2 13 -5z
m-1120 -20 c-7 -2 -19 -2 -25 0 -7 3 -2 5 12 5 14 0 19 -2 13 -5z m-1894 -128
c86 -14 210 -33 275 -43 82 -12 122 -22 129 -33 11 -17 2 -115 -13 -139 -7
-12 -23 -12 -110 -1 -56 7 -104 10 -106 8 -3 -3 -21 -121 -40 -263 -20 -147
-41 -265 -48 -272 -10 -10 -27 -11 -82 -2 -102 16 -104 17 -104 53 0 18 16
140 35 271 19 132 34 240 32 242 -1 1 -42 9 -91 17 -103 17 -120 31 -110 87
12 64 31 100 55 100 12 0 92 -11 178 -25z m4085 -59 c26 -8 62 -26 82 -41 34
-26 74 -90 74 -119 0 -23 -37 -43 -108 -60 l-64 -15 -20 35 c-25 43 -45 54
-98 54 -46 0 -94 -21 -104 -45 -25 -67 10 -88 178 -108 152 -17 195 -33 238
-87 37 -47 55 -130 39 -186 -53 -194 -399 -285 -553 -146 -43 39 -68 85 -68
126 0 28 4 30 108 49 l73 14 14 -28 c23 -43 53 -59 113 -59 64 0 109 21 118
55 15 60 -22 82 -162 96 -216 23 -298 84 -297 224 1 120 75 202 215 239 69 19
163 20 222 2z m-3369 -42 c278 -36 347 -66 390 -169 46 -109 -4 -254 -106
-306 l-39 -20 27 -47 c15 -26 37 -63 49 -82 46 -75 75 -143 66 -152 -9 -9
-192 5 -211 16 -5 3 -34 58 -64 121 -58 119 -56 117 -129 128 -29 4 -29 4 -44
-145 -3 -38 -12 -72 -20 -79 -15 -12 -129 -4 -172 12 -23 9 -24 13 -18 62 28
237 77 636 81 655 7 27 25 28 190 6z m860 -55 c121 -7 226 -16 233 -22 18 -14
16 -121 -3 -137 -12 -10 -51 -12 -164 -7 l-149 6 -7 -65 c-4 -36 -5 -67 -3
-69 2 -2 66 -7 143 -12 l140 -8 9 -27 c6 -17 6 -45 0 -75 l-9 -48 -147 3 -146
4 -4 -64 c-2 -34 -3 -65 -1 -67 1 -2 39 -5 85 -7 200 -10 242 -14 250 -26 15
-24 9 -124 -8 -138 -12 -11 -60 -11 -256 -1 -132 7 -251 17 -264 21 -20 8 -24
17 -24 47 1 79 48 682 55 692 8 14 4 14 270 0z m1718 -4 c74 -19 158 -73 196
-125 48 -67 66 -132 66 -240 -1 -83 -4 -102 -28 -152 -50 -102 -138 -170 -263
-203 -32 -8 -129 -20 -217 -26 -146 -11 -161 -10 -173 5 -8 11 -14 85 -19 214
-4 108 -10 267 -14 352 -4 88 -3 160 2 167 17 24 367 30 450 8z m-974 -227
c86 -119 159 -220 163 -223 4 -4 5 37 2 92 -2 54 -6 149 -8 211 -3 62 -3 119
0 127 8 20 182 22 189 3 2 -7 9 -172 14 -367 8 -262 8 -357 0 -367 -8 -10 -37
-14 -99 -14 l-88 0 -83 118 c-45 64 -116 166 -158 225 l-76 108 -5 -223 -5
-223 -95 0 -95 0 2 363 c1 271 5 367 14 378 9 11 31 14 92 12 l81 -3 155 -217z
m-2666 -463 c22 -9 25 -29 33 -263 4 -117 10 -210 13 -205 4 4 49 97 101 206
52 109 101 202 110 207 20 10 131 -7 148 -24 7 -7 17 -44 22 -82 29 -233 44
-341 49 -356 4 -10 30 44 71 145 35 89 75 186 88 216 l24 53 57 -7 c96 -11
122 -17 128 -30 5 -15 -280 -640 -305 -669 -14 -15 -26 -17 -67 -12 -77 9
-123 25 -129 44 -5 15 -56 405 -56 428 0 5 -47 -80 -103 -189 -57 -110 -110
-203 -119 -208 -20 -11 -150 8 -175 26 -14 11 -19 57 -34 311 -19 315 -22 390
-20 413 1 11 16 13 75 8 40 -4 80 -9 89 -12z m4820 -66 c90 -25 152 -121 151
-234 0 -66 -17 -107 -62 -152 l-29 -28 99 -108 c115 -124 115 -127 8 -151
-111 -26 -106 -27 -199 84 -73 89 -86 100 -114 100 -59 0 -61 -6 -42 -119 9
-56 15 -108 12 -115 -5 -13 -54 -28 -134 -41 l-42 -7 -10 39 c-22 85 -112 676
-104 684 15 15 266 57 348 58 44 0 97 -4 118 -10z m-599 -68 c13 -21 18 -128
7 -136 -7 -4 -75 -14 -152 -23 l-140 -16 6 -60 c4 -34 9 -64 11 -67 1 -3 60 1
130 9 106 12 128 12 135 1 14 -23 22 -120 11 -131 -6 -6 -66 -17 -134 -25 -67
-8 -123 -16 -124 -16 -1 -1 1 -30 4 -64 l4 -62 52 5 c28 3 84 10 124 15 131
16 140 15 151 -28 14 -48 14 -110 1 -118 -20 -12 -490 -59 -499 -49 -5 5 -23
149 -41 319 -34 341 -38 391 -27 401 8 8 352 51 424 53 28 1 54 -3 57 -8z
m-2960 -41 c30 -11 34 -23 136 -413 82 -316 85 -333 73 -340 -14 -7 -175 12
-188 23 -7 6 -18 37 -25 70 l-13 59 -41 6 c-117 16 -221 24 -226 17 -4 -4 -15
-27 -25 -52 -30 -72 -31 -73 -106 -66 -99 10 -124 19 -122 43 1 12 78 168 170
348 l167 328 88 -7 c49 -4 99 -11 112 -16z m776 -48 l55 -7 0 -75 0 -75 -107
-3 -108 -3 0 -32 c0 -76 -30 -510 -36 -519 -9 -13 -171 -5 -185 9 -8 8 -6 87
6 269 8 143 18 264 20 270 4 13 -59 24 -134 24 -70 0 -75 6 -69 90 3 40 10 75
16 79 12 7 453 -15 542 -27z m1545 28 c13 -20 58 -701 48 -711 -6 -6 -45 -15
-88 -21 -62 -8 -80 -8 -90 3 -7 8 -17 68 -24 143 -6 71 -12 130 -14 131 -3 3
-260 -14 -261 -17 -1 -2 1 -59 4 -127 3 -78 1 -129 -5 -138 -12 -17 -153 -29
-173 -15 -16 11 -46 711 -31 727 5 5 49 10 96 10 l87 0 8 -40 c4 -22 7 -86 7
-142 l1 -102 88 5 c48 3 107 7 130 10 l44 5 -7 97 c-3 53 -8 111 -11 128 -2
19 1 36 9 42 21 18 172 28 182 12z m-929 -51 c72 -27 147 -99 165 -157 17 -57
9 -68 -53 -75 -107 -13 -124 -10 -139 24 -15 36 -75 68 -128 69 -19 0 -54 -9
-78 -21 -111 -54 -139 -255 -49 -345 72 -72 199 -64 256 16 21 29 24 30 104
30 45 0 87 -5 93 -11 17 -17 -4 -80 -46 -135 -26 -35 -56 -59 -105 -84 -67
-34 -73 -35 -180 -35 -132 1 -196 21 -270 87 -110 96 -144 275 -85 433 39 106
153 200 269 225 65 13 180 4 246 -21z"/>
<path d="M5895 8728 c11 -6 39 -24 63 -40 23 -16 42 -27 42 -24 0 8 -103 76
-115 76 -5 0 -1 -6 10 -12z"/>
<path d="M6010 8657 c0 -3 35 -31 78 -63 160 -120 341 -314 461 -492 120 -179
224 -428 255 -613 8 -46 14 -72 15 -57 3 88 -68 317 -151 482 -94 188 -183
311 -352 485 -112 114 -306 278 -306 258z"/>
<path d="M6615 8300 c10 -11 20 -20 23 -20 3 0 -3 9 -13 20 -10 11 -20 20 -23
20 -3 0 3 -9 13 -20z"/>
<path d="M6700 8206 c0 -2 8 -10 18 -17 15 -13 16 -12 3 4 -13 16 -21 21 -21
13z"/>
<path d="M5878 7915 c-77 -25 -114 -98 -70 -138 16 -14 34 -16 128 -11 130 8
196 -6 322 -66 92 -44 116 -48 130 -24 34 61 -81 170 -233 221 -90 31 -212 39
-277 18z"/>
<path d="M3099 7233 l-24 -28 28 24 c25 23 32 31 24 31 -2 0 -14 -12 -28 -27z"/>
<path d="M3900 7081 c-211 -64 -314 -386 -201 -626 55 -117 151 -185 261 -185
243 0 388 323 278 618 -28 75 -113 162 -182 185 -52 18 -113 21 -156 8z m220
-170 c81 -57 62 -195 -31 -222 -34 -11 -46 -10 -67 2 -44 25 -66 64 -66 118 0
58 23 97 67 116 36 16 60 12 97 -14z"/>
<path d="M5950 7089 c-127 -37 -217 -179 -228 -361 -11 -194 54 -344 179 -413
70 -39 171 -42 234 -8 41 22 110 89 136 133 97 161 78 428 -39 561 -66 76
-190 115 -282 88z m223 -166 c76 -38 74 -178 -3 -218 -80 -41 -160 16 -160
115 0 54 24 98 63 115 33 15 53 12 100 -12z"/>
<path d="M7048 7033 c7 -3 16 -2 19 1 4 3 -2 6 -13 5 -11 0 -14 -3 -6 -6z"/>
<path d="M7182 7000 c0 -14 2 -19 5 -12 2 6 2 18 0 25 -3 6 -5 1 -5 -13z"/>
<path d="M7182 6675 c0 -16 2 -22 5 -12 2 9 2 23 0 30 -3 6 -5 -1 -5 -18z"/>
<path d="M7151 6374 c0 -11 3 -14 6 -6 3 7 2 16 -1 19 -3 4 -6 -2 -5 -13z"/>
<path d="M6721 6034 c0 -11 3 -14 6 -6 3 7 2 16 -1 19 -3 4 -6 -2 -5 -13z"/>
<path d="M6691 5935 c-34 -109 -130 -298 -202 -395 -223 -303 -603 -537 -1020
-630 -308 -69 -745 -63 -1064 14 -255 62 -532 179 -720 306 -51 34 -65 42 -65
37 0 -6 99 -71 178 -117 248 -142 547 -242 842 -280 143 -19 429 -24 562 -11
473 47 855 217 1148 511 172 171 297 374 355 574 25 85 13 77 -14 -9z"/>
<path d="M5531 5812 c-8 -2 -49 -28 -91 -57 -130 -88 -249 -122 -403 -112 -94
5 -180 29 -269 73 -26 13 -56 24 -66 24 -50 0 -60 -75 -17 -120 38 -40 137
-87 235 -111 119 -30 300 -23 412 16 144 50 268 151 268 218 0 42 -38 80 -69
69z"/>
<path d="M4220 4860 c8 -5 20 -10 25 -10 6 0 3 5 -5 10 -8 5 -19 10 -25 10 -5
0 -3 -5 5 -10z"/>
<path d="M5588 4763 c7 -3 16 -2 19 1 4 3 -2 6 -13 5 -11 0 -14 -3 -6 -6z"/>
<path d="M5528 4753 c7 -3 16 -2 19 1 4 3 -2 6 -13 5 -11 0 -14 -3 -6 -6z"/>
<path d="M4718 4743 c6 -2 18 -2 25 0 6 3 1 5 -13 5 -14 0 -19 -2 -12 -5z"/>
<path d="M4798 4733 c12 -2 32 -2 45 0 12 2 2 4 -23 4 -25 0 -35 -2 -22 -4z"/>
<path d="M5368 4733 c6 -2 18 -2 25 0 6 3 1 5 -13 5 -14 0 -19 -2 -12 -5z"/>
<path d="M4913 4723 c9 -2 23 -2 30 0 6 3 -1 5 -18 5 -16 0 -22 -2 -12 -5z"/>
<path d="M5223 4723 c9 -2 23 -2 30 0 6 3 -1 5 -18 5 -16 0 -22 -2 -12 -5z"/>
<path d="M3132 5247 c-34 -68 -62 -133 -62 -145 0 -39 23 -72 74 -104 116 -74
158 -131 175 -235 15 -97 -12 -198 -72 -262 l-32 -35 30 23 c115 85 264 175
414 248 l173 85 -43 26 c-151 89 -381 286 -509 436 -39 48 -75 86 -79 86 -3 0
-34 -55 -69 -123z"/>
<path d="M3095 4383 c-67 -46 -85 -64 -108 -111 l-29 -57 58 60 c33 33 84 83
114 112 30 29 53 52 50 51 -3 0 -41 -25 -85 -55z"/>
<path d="M2941 4924 c0 -11 3 -14 6 -6 3 7 2 16 -1 19 -3 4 -6 -2 -5 -13z"/>
<path d="M2730 4416 c0 -2 8 -10 18 -17 15 -13 16 -12 3 4 -13 16 -21 21 -21
13z"/>
<path d="M2570 4170 c-43 -23 -121 -25 -205 -5 -75 18 -125 19 -125 3 0 -9 20
-13 62 -14 35 0 99 -4 143 -8 63 -6 88 -5 117 8 20 9 39 20 43 26 8 13 6 13
-35 -10z"/>
<path d="M2270 4135 c7 -8 17 -15 22 -15 5 0 3 7 -6 15 -8 8 -18 15 -22 15 -3
0 -1 -7 6 -15z"/>
<path d="M2320 4096 c0 -2 7 -7 16 -10 8 -3 12 -2 9 4 -6 10 -25 14 -25 6z"/>
<path d="M2385 4065 c17 -8 41 -14 55 -14 15 0 5 6 -25 14 -62 17 -69 17 -30
0z"/>
<path d="M2483 4043 c9 -2 23 -2 30 0 6 3 -1 5 -18 5 -16 0 -22 -2 -12 -5z"/>
<path d="M2433 3883 c9 -2 23 -2 30 0 6 3 -1 5 -18 5 -16 0 -22 -2 -12 -5z"/>
<path d="M2472 3875 c-10 -12 -10 -15 1 -15 8 0 20 7 27 15 17 21 -10 20 -28
0z"/>
<path d="M2318 3853 c6 -2 18 -2 25 0 6 3 1 5 -13 5 -14 0 -19 -2 -12 -5z"/>
<path d="M2428 3853 c7 -3 16 -2 19 1 4 3 -2 6 -13 5 -11 0 -14 -3 -6 -6z"/>
<path d="M3141 4664 c0 -11 3 -14 6 -6 3 7 2 16 -1 19 -3 4 -6 -2 -5 -13z"/>
<path d="M3045 4629 c-4 -6 -5 -12 -2 -15 2 -3 7 2 10 11 7 17 1 20 -8 4z"/>
<path d="M3125 4629 c-4 -6 -5 -12 -2 -15 2 -3 7 2 10 11 7 17 1 20 -8 4z"/>
<path d="M3017 4560 c3 -19 7 -37 9 -39 4 -4 84 58 84 66 0 2 -17 -9 -39 -26
l-38 -31 -11 33 -11 32 6 -35z"/>
<path d="M3666 2447 c-3 -18 -8 -62 -12 -98 l-6 -66 38 -6 c22 -4 61 -7 87 -7
66 0 107 39 107 100 0 56 -31 86 -96 95 -123 15 -112 17 -118 -18z"/>
<path d="M6004 2353 c3 -38 8 -132 12 -209 l6 -142 42 5 c181 20 239 70 239
204 0 89 -31 155 -88 186 -33 19 -56 23 -129 23 l-88 0 6 -67z"/>
<path d="M7235 1663 c-11 -2 -29 -6 -41 -8 -20 -4 -20 -6 -6 -95 l15 -90 36 6
c112 19 161 49 161 99 0 33 -24 81 -45 89 -18 6 -88 6 -120 -1z"/>
<path d="M3713 1413 c-29 -70 -51 -128 -50 -129 2 -3 161 -22 163 -20 2 1 -53
251 -59 269 -1 5 -26 -49 -54 -120z"/>
</g>
</svg>
